# xmcd
#
# Track frame offsets:
#	150
#	13777
#	26635
#	38702
#	50480
#	62860
#	74122
#	86902
#	99860
#	112385
#	123802
#	135712
#	147620
#	160147
#	171617
#	183587
#	197075
#	206847
#	217370
#	228607
#	239660
#	252707
#	264590
#	276325
#	288095
#
# Disc length: 3994 seconds
#
# Revision: 3
# Processed by: cddbd v1.5.1PL2 Copyright (c) Steve Scherf et al.
# Submitted via: EasyCDDAExtractor 4.6.9.1
#
DISCID=a40f9819
DTITLE=Bobby "Blue" Bland - The "3B" Blues Boy - The Blues Years 1952 - 1959
DYEAR=1991
DGENRE=Blues
TTITLE0=No Blow, No Show
TTITLE1=Wise Man's Blues
TTITLE2=Army Blues
TTITLE3=Lost Lover Blues
TTITLE4=It's My Life, Baby
TTITLE5=Honey Bee
TTITLE6=Time Out
TTITLE7=Million Miles From Nowhere
TTITLE8=Woke Up Screaming
TTITLE9=You've Got Bad Intentions
TTITLE10=I Can't Put You Down Baby
TTITLE11=I Don't Believe
TTITLE12=I Learned My Lesson
TTITLE13=I Smell trouble
TTITLE14=Don't Want No Woman
TTITLE15=Further Up The Road
TTITLE16=Teach Me (How to Love You)
TTITLE17=Bobby's Blues
TTITLE18=You Got Me (Where You Want Me)
TTITLE19=Loan A Helping Hand
TTITLE20=Last Night
TTITLE21=Little Boy Blue
TTITLE22=You Did Me Wrong
TTITLE23=I Lost Sight On The World
TTITLE24=Wishing Well
EXTD=
EXTT0=
EXTT1=
EXTT2=
EXTT3=
EXTT4=
EXTT5=
EXTT6=
EXTT7=
EXTT8=
EXTT9=
EXTT10=
EXTT11=
EXTT12=
EXTT13=
EXTT14=
EXTT15=
EXTT16=
EXTT17=
EXTT18=
EXTT19=
EXTT20=
EXTT21=
EXTT22=
EXTT23=
EXTT24=
PLAYORDER=
